<mxfile host="app.diagrams.net" modified="2020-12-24T14:40:10.600Z" agent="5.0 (Windows NT 10.0; Win64; x64) AppleWebKit/537.36 (KHTML, like Gecko) Chrome/87.0.4280.88 Safari/537.36" etag="EDln5dS5077BvhWA2rBM" version="14.1.1" type="github">
  <diagram id="XqaNvyUKEv5docIyUBiS" name="Page-1">
    <mxGraphModel dx="1437" dy="708" grid="1" gridSize="10" guides="1" tooltips="1" connect="1" arrows="1" fold="1" page="1" pageScale="1" pageWidth="583" pageHeight="827" math="0" shadow="0">
      <root>
        <mxCell id="0" />
        <mxCell id="1" parent="0" />
        <mxCell id="N8DjDQneVz0grsx3BjkP-1" value="Пользователь" style="shape=umlActor;verticalLabelPosition=bottom;verticalAlign=top;html=1;outlineConnect=0;" vertex="1" parent="1">
          <mxGeometry x="400" y="190" width="30" height="60" as="geometry" />
        </mxCell>
        <mxCell id="N8DjDQneVz0grsx3BjkP-6" value="Работа с разработчиками" style="ellipse;whiteSpace=wrap;html=1;" vertex="1" parent="1">
          <mxGeometry x="500" y="10" width="120" height="80" as="geometry" />
        </mxCell>
        <mxCell id="N8DjDQneVz0grsx3BjkP-7" value="Работа с проект&lt;br&gt;менеджерами" style="ellipse;whiteSpace=wrap;html=1;" vertex="1" parent="1">
          <mxGeometry x="630" y="190" width="120" height="80" as="geometry" />
        </mxCell>
        <mxCell id="N8DjDQneVz0grsx3BjkP-8" value="Работа с&amp;nbsp;&lt;br&gt;руководителями&lt;br&gt;групп" style="ellipse;whiteSpace=wrap;html=1;" vertex="1" parent="1">
          <mxGeometry x="660" y="340" width="120" height="80" as="geometry" />
        </mxCell>
        <mxCell id="N8DjDQneVz0grsx3BjkP-9" value="Работа с задачами" style="ellipse;whiteSpace=wrap;html=1;" vertex="1" parent="1">
          <mxGeometry x="100" y="280" width="120" height="80" as="geometry" />
        </mxCell>
        <mxCell id="N8DjDQneVz0grsx3BjkP-10" value="Работа с проектами" style="ellipse;whiteSpace=wrap;html=1;" vertex="1" parent="1">
          <mxGeometry x="370" y="480" width="120" height="80" as="geometry" />
        </mxCell>
        <mxCell id="N8DjDQneVz0grsx3BjkP-11" value="" style="endArrow=classic;html=1;exitX=0.5;exitY=0.5;exitDx=0;exitDy=0;exitPerimeter=0;" edge="1" parent="1" source="N8DjDQneVz0grsx3BjkP-1" target="N8DjDQneVz0grsx3BjkP-6">
          <mxGeometry width="50" height="50" relative="1" as="geometry">
            <mxPoint x="560" y="190" as="sourcePoint" />
            <mxPoint x="610" y="140" as="targetPoint" />
          </mxGeometry>
        </mxCell>
        <mxCell id="N8DjDQneVz0grsx3BjkP-12" value="Добавить нового разработчика" style="ellipse;whiteSpace=wrap;html=1;" vertex="1" parent="1">
          <mxGeometry x="750" width="120" height="80" as="geometry" />
        </mxCell>
        <mxCell id="N8DjDQneVz0grsx3BjkP-13" value="Добавить задачу&lt;br&gt;разработчику" style="ellipse;whiteSpace=wrap;html=1;" vertex="1" parent="1">
          <mxGeometry x="780" y="90" width="120" height="80" as="geometry" />
        </mxCell>
        <mxCell id="N8DjDQneVz0grsx3BjkP-14" value="" style="endArrow=none;dashed=1;html=1;dashPattern=1 3;strokeWidth=2;entryX=0;entryY=0.5;entryDx=0;entryDy=0;exitX=0.989;exitY=0.44;exitDx=0;exitDy=0;exitPerimeter=0;" edge="1" parent="1" source="N8DjDQneVz0grsx3BjkP-6" target="N8DjDQneVz0grsx3BjkP-12">
          <mxGeometry width="50" height="50" relative="1" as="geometry">
            <mxPoint x="560" y="170" as="sourcePoint" />
            <mxPoint x="610" y="120" as="targetPoint" />
          </mxGeometry>
        </mxCell>
        <mxCell id="N8DjDQneVz0grsx3BjkP-15" value="" style="endArrow=none;dashed=1;html=1;dashPattern=1 3;strokeWidth=2;entryX=-0.011;entryY=0.429;entryDx=0;entryDy=0;exitX=0.975;exitY=0.679;exitDx=0;exitDy=0;exitPerimeter=0;entryPerimeter=0;" edge="1" parent="1" source="N8DjDQneVz0grsx3BjkP-6" target="N8DjDQneVz0grsx3BjkP-13">
          <mxGeometry width="50" height="50" relative="1" as="geometry">
            <mxPoint x="698.6799999999998" y="95.19999999999999" as="sourcePoint" />
            <mxPoint x="759.9999999999998" y="50" as="targetPoint" />
          </mxGeometry>
        </mxCell>
        <mxCell id="N8DjDQneVz0grsx3BjkP-18" value="&amp;lt;&amp;lt;include&amp;gt;&amp;gt;" style="text;html=1;align=center;verticalAlign=middle;resizable=0;points=[];autosize=1;" vertex="1" parent="1">
          <mxGeometry x="660" y="20" width="80" height="20" as="geometry" />
        </mxCell>
        <mxCell id="N8DjDQneVz0grsx3BjkP-19" value="&amp;lt;&amp;lt;include&amp;gt;&amp;gt;" style="text;html=1;align=center;verticalAlign=middle;resizable=0;points=[];autosize=1;" vertex="1" parent="1">
          <mxGeometry x="670" y="70" width="80" height="20" as="geometry" />
        </mxCell>
        <mxCell id="N8DjDQneVz0grsx3BjkP-20" value="" style="endArrow=classic;html=1;entryX=0;entryY=0.5;entryDx=0;entryDy=0;" edge="1" parent="1" source="N8DjDQneVz0grsx3BjkP-1" target="N8DjDQneVz0grsx3BjkP-7">
          <mxGeometry width="50" height="50" relative="1" as="geometry">
            <mxPoint x="620" y="180" as="sourcePoint" />
            <mxPoint x="670" y="130" as="targetPoint" />
          </mxGeometry>
        </mxCell>
        <mxCell id="N8DjDQneVz0grsx3BjkP-21" value="Добавить нового&amp;nbsp;&lt;br&gt;проект&lt;br&gt;менеджера" style="ellipse;whiteSpace=wrap;html=1;" vertex="1" parent="1">
          <mxGeometry x="910" y="155.68" width="120" height="80" as="geometry" />
        </mxCell>
        <mxCell id="N8DjDQneVz0grsx3BjkP-22" value="Добавить новый&lt;br&gt;проект&lt;br&gt;проект менеджеру" style="ellipse;whiteSpace=wrap;html=1;" vertex="1" parent="1">
          <mxGeometry x="900" y="280" width="120" height="80" as="geometry" />
        </mxCell>
        <mxCell id="N8DjDQneVz0grsx3BjkP-23" value="" style="endArrow=none;dashed=1;html=1;dashPattern=1 3;strokeWidth=2;entryX=-0.011;entryY=0.429;entryDx=0;entryDy=0;exitX=0.975;exitY=0.679;exitDx=0;exitDy=0;exitPerimeter=0;entryPerimeter=0;" edge="1" parent="1">
          <mxGeometry width="50" height="50" relative="1" as="geometry">
            <mxPoint x="740" y="250.00000000000006" as="sourcePoint" />
            <mxPoint x="901.6799999999998" y="309.99999999999994" as="targetPoint" />
          </mxGeometry>
        </mxCell>
        <mxCell id="N8DjDQneVz0grsx3BjkP-24" value="&amp;lt;&amp;lt;include&amp;gt;&amp;gt;" style="text;html=1;align=center;verticalAlign=middle;resizable=0;points=[];autosize=1;" vertex="1" parent="1">
          <mxGeometry x="820" y="270" width="80" height="20" as="geometry" />
        </mxCell>
        <mxCell id="N8DjDQneVz0grsx3BjkP-27" value="" style="endArrow=none;dashed=1;html=1;dashPattern=1 3;strokeWidth=2;entryX=0;entryY=0.5;entryDx=0;entryDy=0;exitX=0.982;exitY=0.398;exitDx=0;exitDy=0;exitPerimeter=0;" edge="1" parent="1" source="N8DjDQneVz0grsx3BjkP-7" target="N8DjDQneVz0grsx3BjkP-21">
          <mxGeometry width="50" height="50" relative="1" as="geometry">
            <mxPoint x="760" y="220" as="sourcePoint" />
            <mxPoint x="810" y="170" as="targetPoint" />
          </mxGeometry>
        </mxCell>
        <mxCell id="N8DjDQneVz0grsx3BjkP-28" value="&amp;lt;&amp;lt;include&amp;gt;&amp;gt;" style="text;html=1;align=center;verticalAlign=middle;resizable=0;points=[];autosize=1;" vertex="1" parent="1">
          <mxGeometry x="750" y="190" width="80" height="20" as="geometry" />
        </mxCell>
        <mxCell id="N8DjDQneVz0grsx3BjkP-29" value="" style="endArrow=classic;html=1;entryX=0;entryY=0.5;entryDx=0;entryDy=0;" edge="1" parent="1" source="N8DjDQneVz0grsx3BjkP-1" target="N8DjDQneVz0grsx3BjkP-8">
          <mxGeometry width="50" height="50" relative="1" as="geometry">
            <mxPoint x="760" y="400" as="sourcePoint" />
            <mxPoint x="810" y="350" as="targetPoint" />
          </mxGeometry>
        </mxCell>
        <mxCell id="N8DjDQneVz0grsx3BjkP-30" value="Добавить новый&lt;br&gt;проект&lt;br&gt;проект менеджеру" style="ellipse;whiteSpace=wrap;html=1;" vertex="1" parent="1">
          <mxGeometry x="900" y="280" width="120" height="80" as="geometry" />
        </mxCell>
        <mxCell id="N8DjDQneVz0grsx3BjkP-31" value="&amp;lt;&amp;lt;include&amp;gt;&amp;gt;" style="text;html=1;align=center;verticalAlign=middle;resizable=0;points=[];autosize=1;" vertex="1" parent="1">
          <mxGeometry x="820" y="270" width="80" height="20" as="geometry" />
        </mxCell>
        <mxCell id="N8DjDQneVz0grsx3BjkP-32" value="" style="endArrow=none;dashed=1;html=1;dashPattern=1 3;strokeWidth=2;entryX=0;entryY=0.5;entryDx=0;entryDy=0;exitX=0.982;exitY=0.398;exitDx=0;exitDy=0;exitPerimeter=0;" edge="1" parent="1">
          <mxGeometry width="50" height="50" relative="1" as="geometry">
            <mxPoint x="747.8399999999999" y="221.84000000000003" as="sourcePoint" />
            <mxPoint x="910" y="195.68000000000006" as="targetPoint" />
          </mxGeometry>
        </mxCell>
        <mxCell id="N8DjDQneVz0grsx3BjkP-33" value="" style="endArrow=none;dashed=1;html=1;dashPattern=1 3;strokeWidth=2;entryX=-0.011;entryY=0.429;entryDx=0;entryDy=0;exitX=0.975;exitY=0.679;exitDx=0;exitDy=0;exitPerimeter=0;entryPerimeter=0;" edge="1" parent="1">
          <mxGeometry width="50" height="50" relative="1" as="geometry">
            <mxPoint x="740" y="250" as="sourcePoint" />
            <mxPoint x="901.6799999999998" y="310" as="targetPoint" />
          </mxGeometry>
        </mxCell>
        <mxCell id="N8DjDQneVz0grsx3BjkP-34" value="&amp;lt;&amp;lt;include&amp;gt;&amp;gt;" style="text;html=1;align=center;verticalAlign=middle;resizable=0;points=[];autosize=1;" vertex="1" parent="1">
          <mxGeometry x="800" y="380" width="80" height="20" as="geometry" />
        </mxCell>
        <mxCell id="N8DjDQneVz0grsx3BjkP-35" value="Добавить новый&lt;br&gt;проект&lt;br&gt;руководителю&lt;br&gt;группы" style="ellipse;whiteSpace=wrap;html=1;" vertex="1" parent="1">
          <mxGeometry x="920" y="470" width="120" height="80" as="geometry" />
        </mxCell>
        <mxCell id="N8DjDQneVz0grsx3BjkP-36" value="&amp;lt;&amp;lt;include&amp;gt;&amp;gt;" style="text;html=1;align=center;verticalAlign=middle;resizable=0;points=[];autosize=1;" vertex="1" parent="1">
          <mxGeometry x="830" y="490" width="80" height="20" as="geometry" />
        </mxCell>
        <mxCell id="N8DjDQneVz0grsx3BjkP-37" value="" style="endArrow=none;dashed=1;html=1;dashPattern=1 3;strokeWidth=2;exitX=0.982;exitY=0.398;exitDx=0;exitDy=0;exitPerimeter=0;" edge="1" parent="1">
          <mxGeometry width="50" height="50" relative="1" as="geometry">
            <mxPoint x="770" y="400.00000000000006" as="sourcePoint" />
            <mxPoint x="1061.08" y="416.92" as="targetPoint" />
          </mxGeometry>
        </mxCell>
        <mxCell id="N8DjDQneVz0grsx3BjkP-38" value="" style="endArrow=none;dashed=1;html=1;dashPattern=1 3;strokeWidth=2;entryX=-0.011;entryY=0.429;entryDx=0;entryDy=0;entryPerimeter=0;" edge="1" parent="1" source="N8DjDQneVz0grsx3BjkP-8">
          <mxGeometry width="50" height="50" relative="1" as="geometry">
            <mxPoint x="760" y="440" as="sourcePoint" />
            <mxPoint x="921.6799999999998" y="500" as="targetPoint" />
          </mxGeometry>
        </mxCell>
        <mxCell id="N8DjDQneVz0grsx3BjkP-39" value="Добавить нового&lt;br&gt;руководителя&lt;br&gt;группы" style="ellipse;whiteSpace=wrap;html=1;" vertex="1" parent="1">
          <mxGeometry x="1040" y="380" width="120" height="80" as="geometry" />
        </mxCell>
        <mxCell id="N8DjDQneVz0grsx3BjkP-40" value="" style="endArrow=classic;html=1;entryX=1;entryY=0;entryDx=0;entryDy=0;" edge="1" parent="1" source="N8DjDQneVz0grsx3BjkP-1" target="N8DjDQneVz0grsx3BjkP-9">
          <mxGeometry width="50" height="50" relative="1" as="geometry">
            <mxPoint x="620" y="490" as="sourcePoint" />
            <mxPoint x="670" y="440" as="targetPoint" />
          </mxGeometry>
        </mxCell>
        <mxCell id="N8DjDQneVz0grsx3BjkP-41" value="" style="endArrow=classic;html=1;entryX=0.427;entryY=0.029;entryDx=0;entryDy=0;entryPerimeter=0;" edge="1" parent="1" source="N8DjDQneVz0grsx3BjkP-1" target="N8DjDQneVz0grsx3BjkP-10">
          <mxGeometry width="50" height="50" relative="1" as="geometry">
            <mxPoint x="380" y="370" as="sourcePoint" />
            <mxPoint x="430" y="320" as="targetPoint" />
          </mxGeometry>
        </mxCell>
        <mxCell id="N8DjDQneVz0grsx3BjkP-42" value="&amp;lt;&amp;lt;include&amp;gt;&amp;gt;" style="text;html=1;align=center;verticalAlign=middle;resizable=0;points=[];autosize=1;" vertex="1" parent="1">
          <mxGeometry x="495.29" y="530" width="80" height="20" as="geometry" />
        </mxCell>
        <mxCell id="N8DjDQneVz0grsx3BjkP-45" value="" style="endArrow=none;dashed=1;html=1;dashPattern=1 3;strokeWidth=2;exitX=0.982;exitY=0.398;exitDx=0;exitDy=0;exitPerimeter=0;" edge="1" parent="1">
          <mxGeometry width="50" height="50" relative="1" as="geometry">
            <mxPoint x="465.2899999999998" y="550" as="sourcePoint" />
            <mxPoint x="756.3699999999999" y="566.9200000000001" as="targetPoint" />
          </mxGeometry>
        </mxCell>
        <mxCell id="N8DjDQneVz0grsx3BjkP-47" value="Добавить новый&amp;nbsp;&lt;br&gt;проект" style="ellipse;whiteSpace=wrap;html=1;" vertex="1" parent="1">
          <mxGeometry x="735.29" y="530" width="120" height="80" as="geometry" />
        </mxCell>
        <mxCell id="N8DjDQneVz0grsx3BjkP-48" value="&amp;lt;&amp;lt;include&amp;gt;&amp;gt;" style="text;html=1;align=center;verticalAlign=middle;resizable=0;points=[];autosize=1;" vertex="1" parent="1">
          <mxGeometry x="80.00000000000006" y="410" width="80" height="20" as="geometry" />
        </mxCell>
        <mxCell id="N8DjDQneVz0grsx3BjkP-49" value="" style="endArrow=none;dashed=1;html=1;dashPattern=1 3;strokeWidth=2;exitX=0.982;exitY=0.398;exitDx=0;exitDy=0;exitPerimeter=0;entryX=0.216;entryY=0.074;entryDx=0;entryDy=0;entryPerimeter=0;" edge="1" parent="1" target="N8DjDQneVz0grsx3BjkP-50">
          <mxGeometry width="50" height="50" relative="1" as="geometry">
            <mxPoint x="159.99999999999977" y="360" as="sourcePoint" />
            <mxPoint x="451.0799999999999" y="376.9200000000001" as="targetPoint" />
            <Array as="points">
              <mxPoint x="180" y="466" />
            </Array>
          </mxGeometry>
        </mxCell>
        <mxCell id="N8DjDQneVz0grsx3BjkP-50" value="Добавить новую&lt;br&gt;задачу" style="ellipse;whiteSpace=wrap;html=1;" vertex="1" parent="1">
          <mxGeometry x="130" y="460" width="120" height="80" as="geometry" />
        </mxCell>
        <mxCell id="N8DjDQneVz0grsx3BjkP-51" value="&amp;lt;&amp;lt;include&amp;gt;&amp;gt;" style="text;html=1;align=center;verticalAlign=middle;resizable=0;points=[];autosize=1;" vertex="1" parent="1">
          <mxGeometry x="490" y="610" width="80" height="20" as="geometry" />
        </mxCell>
        <mxCell id="N8DjDQneVz0grsx3BjkP-52" value="" style="endArrow=none;dashed=1;html=1;dashPattern=1 3;strokeWidth=2;exitX=0.982;exitY=0.398;exitDx=0;exitDy=0;exitPerimeter=0;entryX=0;entryY=0.375;entryDx=0;entryDy=0;entryPerimeter=0;" edge="1" parent="1" target="N8DjDQneVz0grsx3BjkP-53">
          <mxGeometry width="50" height="50" relative="1" as="geometry">
            <mxPoint x="429.9999999999998" y="561.54" as="sourcePoint" />
            <mxPoint x="721.0799999999999" y="578.46" as="targetPoint" />
          </mxGeometry>
        </mxCell>
        <mxCell id="N8DjDQneVz0grsx3BjkP-53" value="Изменить&lt;br&gt;проект" style="ellipse;whiteSpace=wrap;html=1;" vertex="1" parent="1">
          <mxGeometry x="610" y="590" width="120" height="80" as="geometry" />
        </mxCell>
        <mxCell id="N8DjDQneVz0grsx3BjkP-54" value="Добавить новую&lt;br&gt;задачу" style="ellipse;whiteSpace=wrap;html=1;" vertex="1" parent="1">
          <mxGeometry x="130" y="460" width="120" height="80" as="geometry" />
        </mxCell>
        <mxCell id="N8DjDQneVz0grsx3BjkP-55" value="&amp;lt;&amp;lt;include&amp;gt;&amp;gt;" style="text;html=1;align=center;verticalAlign=middle;resizable=0;points=[];autosize=1;" vertex="1" parent="1">
          <mxGeometry x="220.00000000000006" y="330" width="80" height="20" as="geometry" />
        </mxCell>
        <mxCell id="N8DjDQneVz0grsx3BjkP-57" value="Изменить&lt;br&gt;задачу" style="ellipse;whiteSpace=wrap;html=1;" vertex="1" parent="1">
          <mxGeometry x="260" y="360" width="120" height="80" as="geometry" />
        </mxCell>
        <mxCell id="N8DjDQneVz0grsx3BjkP-58" value="" style="endArrow=none;dashed=1;html=1;dashPattern=1 3;strokeWidth=2;entryX=1;entryY=1;entryDx=0;entryDy=0;exitX=0;exitY=0;exitDx=0;exitDy=0;" edge="1" parent="1" source="N8DjDQneVz0grsx3BjkP-57" target="N8DjDQneVz0grsx3BjkP-9">
          <mxGeometry width="50" height="50" relative="1" as="geometry">
            <mxPoint x="400" y="530" as="sourcePoint" />
            <mxPoint x="450" y="480" as="targetPoint" />
          </mxGeometry>
        </mxCell>
        <mxCell id="N8DjDQneVz0grsx3BjkP-59" value="Удалить задачу" style="ellipse;whiteSpace=wrap;html=1;" vertex="1" parent="1">
          <mxGeometry x="60" y="150" width="120" height="80" as="geometry" />
        </mxCell>
        <mxCell id="N8DjDQneVz0grsx3BjkP-60" value="" style="endArrow=none;dashed=1;html=1;dashPattern=1 3;strokeWidth=2;entryX=0.5;entryY=1;entryDx=0;entryDy=0;" edge="1" parent="1" source="N8DjDQneVz0grsx3BjkP-9" target="N8DjDQneVz0grsx3BjkP-59">
          <mxGeometry width="50" height="50" relative="1" as="geometry">
            <mxPoint x="400" y="290" as="sourcePoint" />
            <mxPoint x="450" y="240" as="targetPoint" />
          </mxGeometry>
        </mxCell>
        <mxCell id="N8DjDQneVz0grsx3BjkP-61" value="&amp;lt;&amp;lt;include&amp;gt;&amp;gt;" style="text;html=1;align=center;verticalAlign=middle;resizable=0;points=[];autosize=1;" vertex="1" parent="1">
          <mxGeometry x="130.00000000000006" y="250" width="80" height="20" as="geometry" />
        </mxCell>
      </root>
    </mxGraphModel>
  </diagram>
</mxfile>
